<svg xmlns="http://www.w3.org/2000/svg" viewBox="0 0 240 240" role="img" aria-label="voxelforge">
  <title>voxelforge</title>
  <polygon points="120.00,110.00 215.26,55.00 120.00,0.00 24.74,55.00" fill="#4D9FC8" stroke="#E6E4DE" stroke-width="1.25" stroke-linejoin="round"/>
  <polygon points="24.74,165.00 120.00,110.00 120.00,0.00 24.74,55.00" fill="#357EA4" stroke="#E6E4DE" stroke-width="1.25" stroke-linejoin="round"/>
  <polygon points="215.26,165.00 120.00,110.00 120.00,0.00 215.26,55.00" fill="#22607F" stroke="#E6E4DE" stroke-width="1.25" stroke-linejoin="round"/>
  <polygon points="34.26,108.90 41.88,104.50 41.88,95.70 34.26,100.10" fill="#C26A28" stroke="#E6E4DE" stroke-width="0.5" stroke-linejoin="round"/>
  <polygon points="49.51,108.90 41.88,104.50 41.88,95.70 49.51,100.10" fill="#8F4A18" stroke="#E6E4DE" stroke-width="0.5" stroke-linejoin="round"/>
  <polygon points="49.51,108.90 57.13,104.50 49.51,100.10 41.88,104.50" fill="#F28A3F" stroke="#E6E4DE" stroke-width="0.5" stroke-linejoin="round"/>
  <polygon points="41.88,113.30 49.51,108.90 49.51,100.10 41.88,104.50" fill="#C26A28" stroke="#E6E4DE" stroke-width="0.5" stroke-linejoin="round"/>
  <polygon points="57.13,113.30 49.51,108.90 49.51,100.10 57.13,104.50" fill="#8F4A18" stroke="#E6E4DE" stroke-width="0.5" stroke-linejoin="round"/>
  <polygon points="26.64,95.70 34.26,91.30 34.26,82.50 26.64,86.90" fill="#C26A28" stroke="#E6E4DE" stroke-width="0.5" stroke-linejoin="round"/>
  <polygon points="41.88,95.70 34.26,91.30 34.26,82.50 41.88,86.90" fill="#8F4A18" stroke="#E6E4DE" stroke-width="0.5" stroke-linejoin="round"/>
  <polygon points="41.88,95.70 49.51,91.30 41.88,86.90 34.26,91.30" fill="#F28A3F" stroke="#E6E4DE" stroke-width="0.5" stroke-linejoin="round"/>
  <polygon points="34.26,100.10 41.88,95.70 41.88,86.90 34.26,91.30" fill="#C26A28" stroke="#E6E4DE" stroke-width="0.5" stroke-linejoin="round"/>
  <polygon points="49.51,100.10 41.88,95.70 41.88,86.90 49.51,91.30" fill="#8F4A18" stroke="#E6E4DE" stroke-width="0.5" stroke-linejoin="round"/>
  <polygon points="34.26,82.50 41.88,78.10 34.26,73.70 26.64,78.10" fill="#F28A3F" stroke="#E6E4DE" stroke-width="0.5" stroke-linejoin="round"/>
  <polygon points="26.64,86.90 34.26,82.50 34.26,73.70 26.64,78.10" fill="#C26A28" stroke="#E6E4DE" stroke-width="0.5" stroke-linejoin="round"/>
  <polygon points="41.88,86.90 34.26,82.50 34.26,73.70 41.88,78.10" fill="#8F4A18" stroke="#E6E4DE" stroke-width="0.5" stroke-linejoin="round"/>
  <polygon points="49.51,100.10 57.13,95.70 57.13,86.90 49.51,91.30" fill="#C26A28" stroke="#E6E4DE" stroke-width="0.5" stroke-linejoin="round"/>
  <polygon points="64.75,100.10 57.13,95.70 57.13,86.90 64.75,91.30" fill="#8F4A18" stroke="#E6E4DE" stroke-width="0.5" stroke-linejoin="round"/>
  <polygon points="57.13,86.90 64.75,82.50 57.13,78.10 49.51,82.50" fill="#F28A3F" stroke="#E6E4DE" stroke-width="0.5" stroke-linejoin="round"/>
  <polygon points="49.51,91.30 57.13,86.90 57.13,78.10 49.51,82.50" fill="#C26A28" stroke="#E6E4DE" stroke-width="0.5" stroke-linejoin="round"/>
  <polygon points="64.75,91.30 57.13,86.90 57.13,78.10 64.75,82.50" fill="#8F4A18" stroke="#E6E4DE" stroke-width="0.5" stroke-linejoin="round"/>
  <polygon points="72.37,95.70 79.99,91.30 79.99,82.50 72.37,86.90" fill="#C26A28" stroke="#E6E4DE" stroke-width="0.5" stroke-linejoin="round"/>
  <polygon points="87.61,95.70 79.99,91.30 79.99,82.50 87.61,86.90" fill="#8F4A18" stroke="#E6E4DE" stroke-width="0.5" stroke-linejoin="round"/>
  <polygon points="57.13,78.10 64.75,73.70 64.75,64.90 57.13,69.30" fill="#C26A28" stroke="#E6E4DE" stroke-width="0.5" stroke-linejoin="round"/>
  <polygon points="72.37,78.10 64.75,73.70 64.75,64.90 72.37,69.30" fill="#8F4A18" stroke="#E6E4DE" stroke-width="0.5" stroke-linejoin="round"/>
  <polygon points="72.37,86.90 79.99,82.50 79.99,73.70 72.37,78.10" fill="#C26A28" stroke="#E6E4DE" stroke-width="0.5" stroke-linejoin="round"/>
  <polygon points="87.61,86.90 79.99,82.50 79.99,73.70 87.61,78.10" fill="#8F4A18" stroke="#E6E4DE" stroke-width="0.5" stroke-linejoin="round"/>
  <polygon points="64.75,64.90 72.37,60.50 64.75,56.10 57.13,60.50" fill="#F28A3F" stroke="#E6E4DE" stroke-width="0.5" stroke-linejoin="round"/>
  <polygon points="57.13,69.30 64.75,64.90 64.75,56.10 57.13,60.50" fill="#C26A28" stroke="#E6E4DE" stroke-width="0.5" stroke-linejoin="round"/>
  <polygon points="72.37,69.30 64.75,64.90 64.75,56.10 72.37,60.50" fill="#8F4A18" stroke="#E6E4DE" stroke-width="0.5" stroke-linejoin="round"/>
  <polygon points="72.37,78.10 79.99,73.70 79.99,64.90 72.37,69.30" fill="#C26A28" stroke="#E6E4DE" stroke-width="0.5" stroke-linejoin="round"/>
  <polygon points="72.37,69.30 79.99,64.90 79.99,56.10 72.37,60.50" fill="#C26A28" stroke="#E6E4DE" stroke-width="0.5" stroke-linejoin="round"/>
  <polygon points="87.61,69.30 79.99,64.90 79.99,56.10 87.61,60.50" fill="#8F4A18" stroke="#E6E4DE" stroke-width="0.5" stroke-linejoin="round"/>
  <polygon points="87.61,69.30 95.23,64.90 87.61,60.50 79.99,64.90" fill="#F28A3F" stroke="#E6E4DE" stroke-width="0.5" stroke-linejoin="round"/>
  <polygon points="79.99,73.70 87.61,69.30 87.61,60.50 79.99,64.90" fill="#C26A28" stroke="#E6E4DE" stroke-width="0.5" stroke-linejoin="round"/>
  <polygon points="79.99,56.10 87.61,51.70 79.99,47.30 72.37,51.70" fill="#F28A3F" stroke="#E6E4DE" stroke-width="0.5" stroke-linejoin="round"/>
  <polygon points="72.37,60.50 79.99,56.10 79.99,47.30 72.37,51.70" fill="#C26A28" stroke="#E6E4DE" stroke-width="0.5" stroke-linejoin="round"/>
  <polygon points="95.23,64.90 102.85,60.50 95.23,56.10 87.61,60.50" fill="#F28A3F" stroke="#E6E4DE" stroke-width="0.5" stroke-linejoin="round"/>
  <polygon points="87.61,69.30 95.23,64.90 95.23,56.10 87.61,60.50" fill="#C26A28" stroke="#E6E4DE" stroke-width="0.5" stroke-linejoin="round"/>
  <polygon points="102.85,69.30 95.23,64.90 95.23,56.10 102.85,60.50" fill="#8F4A18" stroke="#E6E4DE" stroke-width="0.5" stroke-linejoin="round"/>
  <polygon points="87.61,51.70 95.23,47.30 87.61,42.90 79.99,47.30" fill="#F28A3F" stroke="#E6E4DE" stroke-width="0.5" stroke-linejoin="round"/>
  <polygon points="79.99,56.10 87.61,51.70 87.61,42.90 79.99,47.30" fill="#C26A28" stroke="#E6E4DE" stroke-width="0.5" stroke-linejoin="round"/>
  <polygon points="95.23,47.30 102.85,42.90 95.23,38.50 87.61,42.90" fill="#F28A3F" stroke="#E6E4DE" stroke-width="0.5" stroke-linejoin="round"/>
  <polygon points="87.61,51.70 95.23,47.30 95.23,38.50 87.61,42.90" fill="#C26A28" stroke="#E6E4DE" stroke-width="0.5" stroke-linejoin="round"/>
  <polygon points="102.85,42.90 110.47,38.50 102.85,34.10 95.23,38.50" fill="#F28A3F" stroke="#E6E4DE" stroke-width="0.5" stroke-linejoin="round"/>
  <polygon points="95.23,47.30 102.85,42.90 102.85,34.10 95.23,38.50" fill="#C26A28" stroke="#E6E4DE" stroke-width="0.5" stroke-linejoin="round"/>
  <polygon points="110.47,47.30 102.85,42.90 102.85,34.10 110.47,38.50" fill="#8F4A18" stroke="#E6E4DE" stroke-width="0.5" stroke-linejoin="round"/>
</svg>
